<mxfile host="Electron" agent="Mozilla/5.0 (Windows NT 10.0; Win64; x64) AppleWebKit/537.36 (KHTML, like Gecko) draw.io/26.0.16 Chrome/132.0.6834.196 Electron/34.2.0 Safari/537.36" compressed="false" version="26.0.16">
  <diagram id="1IEk_Nb3fTFsxIXIZDjR" name="Page-1">
    <mxGraphModel dx="1491" dy="799" grid="1" gridSize="10" guides="1" tooltips="1" connect="1" arrows="1" fold="1" page="0" pageScale="1" pageWidth="1200" pageHeight="1920" math="1" shadow="0">
      <root>
        <mxCell id="0" />
        <mxCell id="1" parent="0" />
        <mxCell id="RrTlAK1MeUyUgEXlGn8F-2" value="Real Car" style="rounded=0;whiteSpace=wrap;html=1;" parent="1" vertex="1">
          <mxGeometry x="-400" y="-200" width="80" height="40" as="geometry" />
        </mxCell>
        <mxCell id="7s6KqwO2Pgz3GpKwGtuv-1" value="Car Filter" style="rounded=0;whiteSpace=wrap;html=1;" parent="1" vertex="1">
          <mxGeometry x="-400" y="-120" width="80" height="40" as="geometry" />
        </mxCell>
        <mxCell id="7s6KqwO2Pgz3GpKwGtuv-4" style="edgeStyle=orthogonalEdgeStyle;rounded=0;orthogonalLoop=1;jettySize=auto;html=1;" parent="1" source="7s6KqwO2Pgz3GpKwGtuv-2" target="7s6KqwO2Pgz3GpKwGtuv-1" edge="1">
          <mxGeometry relative="1" as="geometry" />
        </mxCell>
        <mxCell id="7s6KqwO2Pgz3GpKwGtuv-2" value="Driver Commands" style="rounded=0;whiteSpace=wrap;html=1;" parent="1" vertex="1">
          <mxGeometry x="-560" y="-160" width="80" height="40" as="geometry" />
        </mxCell>
        <mxCell id="7s6KqwO2Pgz3GpKwGtuv-3" value="acc" style="edgeStyle=orthogonalEdgeStyle;rounded=0;orthogonalLoop=1;jettySize=auto;html=1;" parent="1" source="7s6KqwO2Pgz3GpKwGtuv-2" target="RrTlAK1MeUyUgEXlGn8F-2" edge="1">
          <mxGeometry x="-0.6667" relative="1" as="geometry">
            <mxPoint as="offset" />
          </mxGeometry>
        </mxCell>
        <mxCell id="7s6KqwO2Pgz3GpKwGtuv-6" value="`\hat{x}_0`" style="edgeStyle=orthogonalEdgeStyle;rounded=0;orthogonalLoop=1;jettySize=auto;html=1;" parent="1" source="7s6KqwO2Pgz3GpKwGtuv-5" target="7s6KqwO2Pgz3GpKwGtuv-1" edge="1">
          <mxGeometry relative="1" as="geometry" />
        </mxCell>
        <mxCell id="7s6KqwO2Pgz3GpKwGtuv-5" value="Initial position and velocity" style="rounded=0;whiteSpace=wrap;html=1;" parent="1" vertex="1">
          <mxGeometry x="-400" y="-40" width="80" height="40" as="geometry" />
        </mxCell>
        <mxCell id="7s6KqwO2Pgz3GpKwGtuv-8" value="`\hat{x}_1,\hat{x}_2,...`" style="endArrow=classic;html=1;rounded=0;" parent="1" source="7s6KqwO2Pgz3GpKwGtuv-1" edge="1">
          <mxGeometry width="50" height="50" relative="1" as="geometry">
            <mxPoint x="-290" y="-100.2" as="sourcePoint" />
            <mxPoint x="-220" y="-100" as="targetPoint" />
          </mxGeometry>
        </mxCell>
        <mxCell id="yhkMenwqfm2yYEaNRCIy-1" value="" style="endArrow=classic;html=1;rounded=0;" edge="1" parent="1" source="RrTlAK1MeUyUgEXlGn8F-2" target="7s6KqwO2Pgz3GpKwGtuv-1">
          <mxGeometry width="50" height="50" relative="1" as="geometry">
            <mxPoint x="-310" y="-170" as="sourcePoint" />
            <mxPoint x="-210" y="-170" as="targetPoint" />
            <Array as="points">
              <mxPoint x="-240" y="-180" />
              <mxPoint x="-240" y="-150" />
              <mxPoint x="-360" y="-150" />
            </Array>
          </mxGeometry>
        </mxCell>
        <mxCell id="7s6KqwO2Pgz3GpKwGtuv-7" value="`x_1,x_2,...`" style="endArrow=classic;html=1;rounded=0;" parent="1" source="RrTlAK1MeUyUgEXlGn8F-2" edge="1">
          <mxGeometry width="50" height="50" relative="1" as="geometry">
            <mxPoint x="-260" y="-80" as="sourcePoint" />
            <mxPoint x="-220" y="-180" as="targetPoint" />
          </mxGeometry>
        </mxCell>
      </root>
    </mxGraphModel>
  </diagram>
</mxfile>
